<svg width="25" height="24" viewBox="0 0 25 24" fill="none" xmlns="http://www.w3.org/2000/svg">
<path d="M15 5C15 4.06812 15 3.60218 15.1522 3.23463C15.3552 2.74458 15.7446 2.35523 16.2346 2.15224C16.6022 2 17.0681 2 18 2C18.9319 2 19.3978 2 19.7654 2.15224C20.2554 2.35523 20.6448 2.74458 20.8478 3.23463C21 3.60218 21 4.06812 21 5V9C21 9.93188 21 10.3978 20.8478 10.7654C20.6448 11.2554 20.2554 11.6448 19.7654 11.8478C19.3978 12 18.9319 12 18 12C17.0681 12 16.6022 12 16.2346 11.8478C15.7446 11.6448 15.3552 11.2554 15.1522 10.7654C15 10.3978 15 9.93188 15 9V5Z" stroke="black" stroke-width="1.5"/>
<path d="M15 19C15 18.0681 15 17.6022 15.1522 17.2346C15.3552 16.7446 15.7446 16.3552 16.2346 16.1522C16.6022 16 17.0681 16 18 16C18.9319 16 19.3978 16 19.7654 16.1522C20.2554 16.3552 20.6448 16.7446 20.8478 17.2346C21 17.6022 21 18.0681 21 19C21 19.9319 21 20.3978 20.8478 20.7654C20.6448 21.2554 20.2554 21.6448 19.7654 21.8478C19.3978 22 18.9319 22 18 22C17.0681 22 16.6022 22 16.2346 21.8478C15.7446 21.6448 15.3552 21.2554 15.1522 20.7654C15 20.3978 15 19.9319 15 19Z" stroke="black" stroke-width="1.5"/>
<path d="M1 16C1 14.1144 1 13.1716 1.58579 12.5858C2.17157 12 3.11438 12 5 12H7C8.88562 12 9.8284 12 10.4142 12.5858C11 13.1716 11 14.1144 11 16V18C11 19.8856 11 20.8284 10.4142 21.4142C9.8284 22 8.88562 22 7 22H5C3.11438 22 2.17157 22 1.58579 21.4142C1 20.8284 1 19.8856 1 18V16Z" stroke="black" stroke-width="1.5"/>
<path d="M1 5C1 4.06812 1 3.60218 1.15224 3.23463C1.35523 2.74458 1.74458 2.35523 2.23463 2.15224C2.60218 2 3.06812 2 4 2H8C8.93188 2 9.3978 2 9.7654 2.15224C10.2554 2.35523 10.6448 2.74458 10.8478 3.23463C11 3.60218 11 4.06812 11 5C11 5.93188 11 6.39782 10.8478 6.76537C10.6448 7.25542 10.2554 7.64477 9.7654 7.84776C9.3978 8 8.93188 8 8 8H4C3.06812 8 2.60218 8 2.23463 7.84776C1.74458 7.64477 1.35523 7.25542 1.15224 6.76537C1 6.39782 1 5.93188 1 5Z" stroke="black" stroke-width="1.5"/>
</svg>
