<svg width="24" height="24" viewBox="0 0 24 24" fill="none" xmlns="http://www.w3.org/2000/svg">
<path d="M4 1.25C3.58579 1.25 3.25 1.58579 3.25 2C3.25 2.41421 3.58579 2.75 4 2.75V1.25ZM20 2.75C20.4142 2.75 20.75 2.41421 20.75 2C20.75 1.58579 20.4142 1.25 20 1.25V2.75ZM20 22.75C20.4142 22.75 20.75 22.4142 20.75 22C20.75 21.5858 20.4142 21.25 20 21.25V22.75ZM4 21.25C3.58579 21.25 3.25 21.5858 3.25 22C3.25 22.4142 3.58579 22.75 4 22.75V21.25ZM18.25 2V5H19.75V2H18.25ZM18.25 5C18.25 8.45178 15.4518 11.25 12 11.25V12.75C16.2802 12.75 19.75 9.2802 19.75 5H18.25ZM4.25 2V5H5.75V2H4.25ZM4.25 5C4.25 9.2802 7.7198 12.75 12 12.75V11.25C8.54822 11.25 5.75 8.45178 5.75 5H4.25ZM12 12.75C15.4518 12.75 18.25 15.5482 18.25 19H19.75C19.75 14.7198 16.2802 11.25 12 11.25V12.75ZM18.25 19V22H19.75V19H18.25ZM12 11.25C7.7198 11.25 4.25 14.7198 4.25 19H5.75C5.75 15.5482 8.54822 12.75 12 12.75V11.25ZM4.25 19V22H5.75V19H4.25ZM4 2.75H20V1.25H4V2.75ZM20 21.25H4V22.75H20V21.25Z" fill="black"/>
</svg>
