<svg width="24" height="24" viewBox="0 0 24 24" fill="none" xmlns="http://www.w3.org/2000/svg">
<path d="M12 21.5009C16.4183 21.5009 20 17.9192 20 13.5009C20 10.5398 18.3912 6.60696 16 4.3349L14 6.99927L10.5 2.49927C7 4.99927 4 9.59538 4 13.5009C4 17.9192 7.58172 21.5009 12 21.5009Z" stroke="black" stroke-width="1.5" stroke-linejoin="round"/>
<path d="M12 18.4992C14.2091 18.4992 16 16.4845 16 13.9992C16 13.2082 15.8186 12.4649 15.5 11.819L13.5 13.4992L10.5 9.49823C9.5 10.4982 8 12.1107 8 13.9992C8 16.4845 9.79086 18.4992 12 18.4992Z" stroke="black" stroke-width="1.5" stroke-linejoin="round"/>
</svg>
