<svg width="24" height="24" viewBox="0 0 24 24" fill="none" xmlns="http://www.w3.org/2000/svg">
<path d="M8.74869 18.4911L9.49678 18.4377L8.74869 18.4911ZM15.2499 18.4911L14.5018 18.4376L14.5018 18.4377L15.2499 18.4911ZM2.35139 13.2135L1.61009 13.3274L1.61009 13.3274L2.35139 13.2135ZM2.25617 8.74938L2.94604 9.04363L2.94604 9.04362L2.25617 8.74938ZM5.58114 5.64106L5.1417 5.03328L5.1417 5.03329L5.58114 5.64106ZM7.02099 4.6L7.46043 5.20778L7.46043 5.20777L7.02099 4.6ZM16.979 4.6L17.4185 3.99223L17.4185 3.99222L16.979 4.6ZM18.4188 5.64106L17.9794 6.24883L17.9794 6.24884L18.4188 5.64106ZM21.7438 8.74938L21.0539 9.04362L21.0539 9.04362L21.7438 8.74938ZM21.6486 13.2135L20.9073 13.0996L21.6486 13.2135ZM21.3476 15.1724L22.0889 15.2863L22.0889 15.2863L21.3476 15.1724ZM2.65243 15.1724L3.39373 15.0585L3.39373 15.0585L2.65243 15.1724ZM9.74741 21.9466L9.49678 18.4377L8.0006 18.5445L8.25123 22.0534L9.74741 21.9466ZM9.49678 18.4377C9.39304 16.9853 10.5433 15.75 11.9993 15.75V14.25C9.67277 14.25 7.83484 16.2239 8.0006 18.5445L9.49678 18.4377ZM11.9993 15.75C13.4554 15.75 14.6056 16.9853 14.5018 18.4376L15.998 18.5446C16.1638 16.2239 14.3259 14.25 11.9993 14.25V15.75ZM14.5018 18.4377L14.2512 21.9466L15.7474 22.0534L15.998 18.5445L14.5018 18.4377ZM3.09269 13.0996C2.91382 11.9356 2.78929 11.119 2.75765 10.4655C2.72689 9.82999 2.78878 9.41233 2.94604 9.04363L1.5663 8.45513C1.28925 9.10468 1.22225 9.77043 1.25941 10.5381C1.2957 11.2877 1.43594 12.1941 1.61009 13.3274L3.09269 13.0996ZM2.94604 9.04362C3.1039 8.6735 3.36702 8.33129 3.85661 7.8969C4.35817 7.45189 5.04492 6.95427 6.02058 6.24883L5.1417 5.03329C4.19025 5.72122 3.43167 6.26863 2.86109 6.77487C2.27855 7.29174 1.84274 7.807 1.5663 8.45514L2.94604 9.04362ZM6.02058 6.24884L7.46043 5.20778L6.58155 3.99222L5.1417 5.03328L6.02058 6.24884ZM7.46043 5.20777C8.67318 4.33092 9.53197 3.7114 10.2579 3.30406C10.9664 2.90645 11.483 2.75 12 2.75V1.25C11.1339 1.25 10.3597 1.52688 9.5238 1.99595C8.70528 2.45527 7.7661 3.13575 6.58155 3.99222L7.46043 5.20777ZM12 2.75C12.517 2.75 13.0336 2.90645 13.7421 3.30406C14.468 3.7114 15.3268 4.33092 16.5396 5.20777L17.4185 3.99222C16.2339 3.13575 15.2947 2.45527 14.4762 1.99595C13.6403 1.52689 12.8661 1.25 12 1.25V2.75ZM16.5396 5.20777L17.9794 6.24883L18.8583 5.03329L17.4185 3.99223L16.5396 5.20777ZM17.9794 6.24884C18.9551 6.95427 19.6418 7.45189 20.1434 7.8969C20.633 8.33128 20.8961 8.67349 21.0539 9.04362L22.4337 8.45514C22.1573 7.80701 21.7215 7.29175 21.1389 6.77488C20.5683 6.26863 19.8098 5.72122 18.8583 5.03328L17.9794 6.24884ZM21.0539 9.04362C21.2112 9.41233 21.2731 9.82999 21.2423 10.4655C21.2107 11.119 21.0862 11.9356 20.9073 13.0996L22.3899 13.3274C22.5641 12.1941 22.7043 11.2877 22.7406 10.5381C22.7777 9.77043 22.7107 9.10468 22.4337 8.45514L21.0539 9.04362ZM20.9073 13.0996L20.6063 15.0585L22.0889 15.2863L22.3899 13.3274L20.9073 13.0996ZM20.6063 15.0585C20.353 16.7066 20.1726 17.8709 19.9182 18.7487C19.6704 19.6039 19.3761 20.0971 18.9494 20.452L19.9086 21.6052C20.6499 20.9887 21.0646 20.1821 21.359 19.1662C21.6468 18.1728 21.8417 16.8947 22.0889 15.2863L20.6063 15.0585ZM18.9494 20.452C18.5197 20.8094 17.9613 21.0217 17.0361 21.134C16.0921 21.2487 14.865 21.25 13.1388 21.25V22.75C14.8274 22.75 16.1615 22.7513 17.2169 22.6231C18.2911 22.4926 19.1704 22.2192 19.9086 21.6052L18.9494 20.452ZM13.1388 21.25H10.8612V22.75H13.1388V21.25ZM10.8612 21.25C9.13498 21.25 7.90794 21.2487 6.96393 21.134C6.03867 21.0217 5.48034 20.8094 5.0506 20.452L4.0914 21.6052C4.82957 22.2192 5.70891 22.4926 6.78306 22.6231C7.83847 22.7513 9.17257 22.75 10.8612 22.75V21.25ZM5.0506 20.452C4.62394 20.0971 4.32959 19.6039 4.08178 18.7487C3.82742 17.8709 3.647 16.7066 3.39373 15.0585L1.91113 15.2863C2.1583 16.8947 2.35321 18.1728 2.64105 19.1662C2.93544 20.1821 3.35015 20.9887 4.0914 21.6052L5.0506 20.452ZM3.39373 15.0585L3.09269 13.0996L1.61009 13.3274L1.91113 15.2863L3.39373 15.0585Z" fill="black"/>
</svg>
