<svg width="24" height="24" viewBox="0 0 24 24" fill="none" xmlns="http://www.w3.org/2000/svg">
<path d="M5.18007 15.2964L5.55932 15.9434L5.55932 15.9434L5.18007 15.2964ZM2.63348 19.422L2.12043 19.9691L2.12044 19.9691L2.63348 19.422ZM17.3665 19.422L16.8535 18.8749L16.8535 18.8749L17.3665 19.422ZM14.8199 15.2964L14.4406 15.9434L14.4407 15.9434L14.8199 15.2964ZM20.25 4C20.25 3.58579 19.9142 3.25 19.5 3.25C19.0858 3.25 18.75 3.58579 18.75 4H20.25ZM18.75 9C18.75 9.41421 19.0858 9.75 19.5 9.75C19.9142 9.75 20.25 9.41421 20.25 9H18.75ZM22 7.25C22.4142 7.25 22.75 6.91421 22.75 6.5C22.75 6.08579 22.4142 5.75 22 5.75V7.25ZM17 5.75C16.5858 5.75 16.25 6.08579 16.25 6.5C16.25 6.91421 16.5858 7.25 17 7.25V5.75ZM4.80082 14.6494C4.25346 14.9702 2.9773 15.6034 2.16169 16.3892C1.74621 16.7896 1.33665 17.3303 1.26188 18.0037C1.18176 18.7252 1.50411 19.3911 2.12043 19.9691L3.14653 18.8749C2.75872 18.5112 2.74012 18.2826 2.75272 18.1692C2.77066 18.0077 2.88747 17.7729 3.20247 17.4694C3.84782 16.8476 4.8491 16.3597 5.55932 15.9434L4.80082 14.6494ZM2.12044 19.9691C3.17051 20.9538 4.43842 21.75 6.08077 21.75V20.25C4.97578 20.25 4.05849 19.7302 3.14652 18.8749L2.12044 19.9691ZM6.08077 21.75H13.9192V20.25H6.08077V21.75ZM13.9192 21.75C15.5616 21.75 16.8295 20.9538 17.8795 19.9691L16.8535 18.8749C15.9415 19.7302 15.0242 20.25 13.9192 20.25V21.75ZM17.8795 19.9691C18.4959 19.3911 18.8182 18.7252 18.7381 18.0037C18.6633 17.3303 18.2538 16.7896 17.8383 16.3892C17.0227 15.6034 15.7465 14.9702 15.1991 14.6494L14.4407 15.9434C15.1509 16.3597 16.1522 16.8476 16.7975 17.4694C17.1125 17.7729 17.2293 18.0077 17.2473 18.1692C17.2599 18.2826 17.2413 18.5112 16.8535 18.8749L17.8795 19.9691ZM15.1992 14.6494C12.0159 12.7836 7.98401 12.7836 4.80081 14.6494L5.55932 15.9434C8.27411 14.3522 11.7258 14.3522 14.4406 15.9434L15.1992 14.6494ZM13.25 7C13.25 8.79492 11.7949 10.25 10 10.25V11.75C12.6233 11.75 14.75 9.62336 14.75 7H13.25ZM10 10.25C8.20507 10.25 6.75 8.79493 6.75 7H5.25C5.25 9.62335 7.37665 11.75 10 11.75V10.25ZM6.75 7C6.75 5.20507 8.20507 3.75 10 3.75V2.25C7.37665 2.25 5.25 4.37665 5.25 7H6.75ZM10 3.75C11.7949 3.75 13.25 5.20508 13.25 7H14.75C14.75 4.37664 12.6233 2.25 10 2.25V3.75ZM18.75 4V9H20.25V4H18.75ZM22 5.75H17V7.25H22V5.75Z" fill="black"/>
</svg>
