<svg width="24" height="24" viewBox="0 0 24 24" fill="none" xmlns="http://www.w3.org/2000/svg">
<path d="M14.491 14.75C14.0768 14.75 13.741 15.0858 13.741 15.5C13.741 15.9142 14.0768 16.25 14.491 16.25V14.75ZM14.5 16.25C14.9142 16.25 15.25 15.9142 15.25 15.5C15.25 15.0858 14.9142 14.75 14.5 14.75V16.25ZM9.5 14.75C9.08579 14.75 8.75 15.0858 8.75 15.5C8.75 15.9142 9.08579 16.25 9.5 16.25V14.75ZM9.50897 16.25C9.92318 16.25 10.259 15.9142 10.259 15.5C10.259 15.0858 9.92318 14.75 9.50897 14.75V16.25ZM4.26781 18.8447L5.0111 18.7446L5.0111 18.7446L4.26781 18.8447ZM7.55966 21.9009L7.52522 22.6501H7.52523L7.55966 21.9009ZM16.4403 21.9009L16.4747 22.6501H16.4747L16.4403 21.9009ZM19.7322 18.8447L18.9889 18.7446L18.9889 18.7446L19.7322 18.8447ZM19.7322 12.1553L18.9889 12.2554L18.9889 12.2554L19.7322 12.1553ZM16.4403 9.09909L16.4747 8.34988L16.4747 8.34988L16.4403 9.09909ZM7.55966 9.09909L7.52522 8.34988L7.52522 8.34988L7.55966 9.09909ZM4.26781 12.1553L5.0111 12.2554L5.0111 12.2554L4.26781 12.1553ZM6.75 9C6.75 9.41421 7.08579 9.75 7.5 9.75C7.91421 9.75 8.25 9.41421 8.25 9H6.75ZM15.75 9C15.75 9.41421 16.0858 9.75 16.5 9.75C16.9142 9.75 17.25 9.41421 17.25 9H15.75ZM14.491 16.25H14.5V14.75H14.491V16.25ZM9.5 16.25H9.50897V14.75H9.5V16.25ZM3.52452 18.9448C3.79609 20.9619 5.46716 22.5555 7.52522 22.6501L7.5941 21.1517C6.2851 21.0915 5.18929 20.0681 5.0111 18.7446L3.52452 18.9448ZM7.52523 22.6501C8.95363 22.7158 10.4041 22.75 12 22.75V21.25C10.4265 21.25 8.99891 21.2162 7.59409 21.1517L7.52523 22.6501ZM12 22.75C13.5959 22.75 15.0463 22.7158 16.4747 22.6501L16.4059 21.1517C15.0011 21.2162 13.5735 21.25 12 21.25V22.75ZM16.4747 22.6501C18.5329 22.5555 20.2039 20.9619 20.4755 18.9448L18.9889 18.7446C18.8107 20.0681 17.7149 21.0915 16.4059 21.1517L16.4747 22.6501ZM20.4755 18.9448C20.6237 17.8444 20.75 16.6881 20.75 15.5H19.25C19.25 16.5871 19.1343 17.665 18.9889 18.7446L20.4755 18.9448ZM20.75 15.5C20.75 14.3119 20.6237 13.1556 20.4755 12.0552L18.9889 12.2554C19.1343 13.335 19.25 14.4129 19.25 15.5H20.75ZM20.4755 12.0552C20.2039 10.0381 18.5329 8.4445 16.4747 8.34988L16.4059 9.8483C17.7149 9.90848 18.8107 10.9319 18.9889 12.2554L20.4755 12.0552ZM16.4747 8.34988C15.0463 8.28422 13.5958 8.25 12 8.25V9.75C13.5736 9.75 15.0011 9.78372 16.4059 9.8483L16.4747 8.34988ZM12 8.25C10.4042 8.25 8.95364 8.28422 7.52522 8.34988L7.5941 9.8483C8.9989 9.78372 10.4264 9.75 12 9.75V8.25ZM7.52522 8.34988C5.46716 8.4445 3.79608 10.0381 3.52452 12.0552L5.0111 12.2554C5.18929 10.9319 6.2851 9.90848 7.5941 9.8483L7.52522 8.34988ZM3.52452 12.0552C3.37637 13.1555 3.25 14.3119 3.25 15.5H4.75C4.75 14.4129 4.86573 13.3351 5.0111 12.2554L3.52452 12.0552ZM3.25 15.5C3.25 16.6881 3.37637 17.8445 3.52452 18.9448L5.0111 18.7446C4.86573 17.6649 4.75 16.5871 4.75 15.5H3.25ZM8.25 9V6.5H6.75V9H8.25ZM8.25 6.5C8.25 4.42893 9.92893 2.75 12 2.75V1.25C9.10051 1.25 6.75 3.60051 6.75 6.5H8.25ZM12 2.75C14.0711 2.75 15.75 4.42893 15.75 6.5H17.25C17.25 3.60051 14.8995 1.25 12 1.25V2.75ZM15.75 6.5V9H17.25V6.5H15.75Z" fill="black"/>
</svg>
