<svg width="24" height="24" viewBox="0 0 24 24" fill="none" xmlns="http://www.w3.org/2000/svg">
<path d="M16.487 4.862L18.174 3.174C18.5257 2.82233 19.0027 2.62476 19.5 2.62476C19.9973 2.62476 20.4743 2.82233 20.826 3.174C21.1777 3.52568 21.3752 4.00266 21.3752 4.5C21.3752 4.99735 21.1777 5.47433 20.826 5.826L10.207 16.445C9.67832 16.9734 9.02637 17.3617 8.31 17.575L5.625 18.375L6.425 15.69C6.63828 14.9736 7.02663 14.3217 7.555 13.793L16.487 4.862ZM16.487 4.862L19.125 7.5M17.625 14.375V19.125C17.625 19.7217 17.3879 20.294 16.966 20.716C16.544 21.138 15.9717 21.375 15.375 21.375H4.875C4.27826 21.375 3.70597 21.138 3.28401 20.716C2.86205 20.294 2.625 19.7217 2.625 19.125V8.625C2.625 8.02827 2.86205 7.45597 3.28401 7.03401C3.70597 6.61206 4.27826 6.375 4.875 6.375H9.625" stroke="black" stroke-width="1.5" stroke-linecap="round" stroke-linejoin="round"/>
</svg>
