<svg width="24" height="24" viewBox="0 0 24 24" fill="none" xmlns="http://www.w3.org/2000/svg">
<path d="M17.0298 13.3482L17.3432 14.0296L17.3432 14.0296L17.0298 13.3482ZM17.0298 10.6519L17.3432 9.97051L17.3431 9.97049L17.0298 10.6519ZM15.7389 8.62937L14.9893 8.60489V8.6049L15.7389 8.62937ZM15.1215 7.13594L15.4819 6.47819L15.4818 6.47815L15.1215 7.13594ZM14.7988 6.95919L14.4384 7.61693L14.4385 7.61698L14.7988 6.95919ZM13.3077 7.18794L13.7285 7.80879L13.7285 7.80876L13.3077 7.18794ZM10.6933 7.18789L11.1141 6.56705L11.114 6.56702L10.6933 7.18789ZM9.20212 6.95913L9.56247 7.61689L9.56247 7.61689L9.20212 6.95913ZM8.87949 7.13588L9.23984 7.79364L9.23984 7.79364L8.87949 7.13588ZM8.26193 8.62934L7.51232 8.65366L7.51233 8.65367L8.26193 8.62934ZM6.97024 10.6519L7.2835 11.3333L7.28351 11.3333L6.97024 10.6519ZM6.07904 11.1486L6.71045 11.5534L6.71047 11.5533L6.07904 11.1486ZM6.97023 13.3482L6.65688 14.0296L6.65688 14.0296L6.97023 13.3482ZM8.26109 15.3707L7.51149 15.3462L7.51149 15.3462L8.26109 15.3707ZM8.87854 16.8641L9.23897 16.2064L9.2389 16.2063L8.87854 16.8641ZM9.20117 17.0409L8.84074 17.6986L8.84088 17.6987L9.20117 17.0409ZM9.83518 17.3046L9.87037 18.0538L9.8709 18.0537L9.83518 17.3046ZM10.6922 16.812L10.2713 16.1912L10.2712 16.1913L10.6922 16.812ZM13.3087 16.812L12.8878 17.4327L12.8878 17.4328L13.3087 16.812ZM14.1658 17.3045L14.2015 16.5554L14.201 16.5553L14.1658 17.3045ZM14.7998 17.0408L14.4395 16.383L14.4394 16.3831L14.7998 17.0408ZM15.1224 16.8641L15.4827 17.5219L15.4828 17.5218L15.1224 16.8641ZM15.7015 16.4623L15.0502 16.0905L15.0498 16.0911L15.7015 16.4623ZM15.7397 15.3707L14.9901 15.3954L14.9901 15.3954L15.7397 15.3707ZM19.75 2C19.75 1.58579 19.4142 1.25 19 1.25C18.5858 1.25 18.25 1.58579 18.25 2H19.75ZM19 4.85857L18.475 5.39415C18.6906 5.60555 19.012 5.667 19.2905 5.55004C19.5689 5.43309 19.75 5.16056 19.75 4.85857H19ZM2.14483 16.3003C2.31067 16.6799 2.75281 16.8531 3.13238 16.6873C3.51194 16.5214 3.68519 16.0793 3.51935 15.6997L2.14483 16.3003ZM4.25 22C4.25 22.4142 4.58579 22.75 5 22.75C5.41421 22.75 5.75 22.4142 5.75 22H4.25ZM5 19.1414L5.52504 18.6058C5.30939 18.3944 4.98798 18.333 4.70955 18.4499C4.43112 18.5669 4.25 18.8394 4.25 19.1414H5ZM21.8552 7.69972C21.6893 7.32015 21.2472 7.1469 20.8676 7.31274C20.4881 7.47858 20.3148 7.92072 20.4806 8.30028L21.8552 7.69972ZM17.3432 14.0296C17.6047 13.9093 17.8326 13.8048 18.0025 13.7139C18.1342 13.6435 18.3943 13.5029 18.5525 13.2559L17.2895 12.4467C17.3399 12.3681 17.3896 12.3349 17.3816 12.3407C17.3773 12.3439 17.3538 12.3598 17.2951 12.3912C17.1746 12.4557 16.9964 12.538 16.7164 12.6668L17.3432 14.0296ZM18.5525 13.2559C18.6904 13.0406 18.7239 12.8149 18.7373 12.661C18.7507 12.5073 18.75 12.3214 18.75 12.1387H17.25C17.25 12.2387 17.25 12.318 17.2489 12.3862C17.2477 12.4547 17.2457 12.4999 17.2429 12.5312C17.2366 12.6046 17.2306 12.5387 17.2895 12.4467L18.5525 13.2559ZM18.75 12.1387V11.8613H17.25V12.1387H18.75ZM18.75 11.8613C18.75 11.6787 18.7507 11.4928 18.7373 11.339C18.7239 11.1852 18.6904 10.9594 18.5525 10.7441L17.2895 11.5533C17.2306 11.4613 17.2366 11.3954 17.2429 11.4689C17.2457 11.5001 17.2477 11.5453 17.2489 11.6138C17.25 11.682 17.25 11.7613 17.25 11.8613H18.75ZM18.5525 10.7441C18.3942 10.4971 18.1341 10.3564 18.0024 10.286C17.8325 10.1952 17.6045 10.0907 17.3432 9.97051L16.7164 11.3333C16.9965 11.4621 17.1746 11.5444 17.2952 11.6088C17.3539 11.6402 17.3773 11.6562 17.3816 11.6593C17.3897 11.6652 17.3399 11.632 17.2895 11.5533L18.5525 10.7441ZM17.3431 9.97049C16.7985 9.72003 16.4713 9.18044 16.4885 8.65384L14.9893 8.6049C14.9513 9.76916 15.6553 10.8454 16.7165 11.3333L17.3431 9.97049ZM16.4885 8.65385C16.4988 8.33995 16.5077 8.07386 16.5038 7.87254C16.5018 7.77083 16.4962 7.66261 16.481 7.55929C16.467 7.46493 16.437 7.31491 16.3518 7.16576L15.0492 7.9094C14.9991 7.82165 14.994 7.75806 14.9971 7.77898C14.9989 7.79095 15.0026 7.82688 15.004 7.90201C15.007 8.05439 15.0001 8.2728 14.9893 8.60489L16.4885 8.65385ZM16.3518 7.16576C16.2285 6.94972 16.0496 6.81674 15.9254 6.73466C15.7998 6.65166 15.64 6.56482 15.4819 6.47819L14.7611 7.79369C14.8475 7.84099 14.9161 7.87862 14.9747 7.91191C15.0335 7.94535 15.0721 7.96875 15.0985 7.98618C15.1614 8.02775 15.1024 8.00264 15.0492 7.9094L16.3518 7.16576ZM15.4818 6.47815L15.1591 6.3014L14.4385 7.61698L14.7612 7.79373L15.4818 6.47815ZM15.1592 6.30145C15.0064 6.21773 14.8506 6.13164 14.715 6.07159C14.5791 6.01134 14.3744 5.93477 14.1295 5.94635L14.2003 7.44467C14.0959 7.44961 14.0437 7.41478 14.1074 7.44298C14.1345 7.45502 14.1731 7.47396 14.2309 7.50442C14.2884 7.53475 14.3547 7.57104 14.4384 7.61693L15.1592 6.30145ZM14.1295 5.94635C13.8475 5.95968 13.602 6.105 13.4783 6.17879C13.3183 6.27436 13.1177 6.41069 12.8869 6.56712L13.7285 7.80876C13.9755 7.64133 14.1333 7.53477 14.2472 7.46674C14.3028 7.43359 14.328 7.42175 14.3333 7.41953C14.343 7.41536 14.2909 7.44039 14.2003 7.44467L14.1295 5.94635ZM12.8869 6.56709C12.3639 6.92155 11.6371 6.92154 11.1141 6.56705L10.2725 7.80873C11.3037 8.50764 12.6973 8.50767 13.7285 7.80879L12.8869 6.56709ZM11.114 6.56702C10.8832 6.41062 10.6826 6.27429 10.5226 6.17874C10.399 6.10496 10.1535 5.95962 9.87144 5.94629L9.80062 7.44461C9.70999 7.44033 9.65788 7.41529 9.66765 7.41946C9.67287 7.42168 9.69814 7.43352 9.7537 7.46669C9.86768 7.53473 10.0255 7.6413 10.2726 7.80876L11.114 6.56702ZM9.87144 5.94629C9.62656 5.93471 9.42184 6.01128 9.28589 6.07153C9.15038 6.13158 8.99456 6.21766 8.84177 6.30137L9.56247 7.61689C9.64624 7.57099 9.71253 7.5347 9.77005 7.50436C9.82781 7.4739 9.8664 7.45496 9.89359 7.44291C9.95724 7.41471 9.90501 7.44955 9.80062 7.44461L9.87144 5.94629ZM8.84177 6.30137L8.51914 6.47812L9.23984 7.79364L9.56247 7.61689L8.84177 6.30137ZM8.51914 6.47812C8.36105 6.56473 8.20129 6.65156 8.07568 6.73453C7.9515 6.81656 7.77249 6.94956 7.64914 7.16571L8.95194 7.90917C8.89865 8.00255 8.83948 8.0277 8.90245 7.98611C8.92883 7.96868 8.96743 7.94529 9.02628 7.91185C9.08488 7.87856 9.15352 7.84093 9.23984 7.79364L8.51914 6.47812ZM7.64914 7.16571C7.56406 7.3148 7.53408 7.46475 7.5201 7.55906C7.5048 7.66233 7.49927 7.77053 7.49725 7.87224C7.49325 8.07358 7.50214 8.33968 7.51232 8.65366L9.01154 8.60502C9.00076 8.27291 8.99393 8.05445 8.99695 7.90205C8.99845 7.82689 9.00212 7.79093 9.0039 7.77891C9.00701 7.75793 9.00199 7.82146 8.95194 7.90917L7.64914 7.16571ZM7.51233 8.65367C7.52941 9.18014 7.20202 9.71988 6.65697 9.97046L7.28351 11.3333C8.34464 10.8455 9.04933 9.76948 9.01154 8.60501L7.51233 8.65367ZM6.65698 9.97045C6.39555 10.0906 6.16762 10.1951 5.99763 10.2859C5.86587 10.3564 5.60586 10.497 5.44761 10.7439L6.71047 11.5533C6.6601 11.6319 6.61039 11.6651 6.61843 11.6592C6.6227 11.6561 6.64615 11.6401 6.70484 11.6088C6.82533 11.5443 7.00349 11.4621 7.2835 11.3333L6.65698 9.97045ZM5.44763 10.7438C5.3096 10.9592 5.27607 11.185 5.2627 11.3389C5.24933 11.4927 5.25 11.6786 5.25 11.8613H6.75C6.75 11.7613 6.75002 11.682 6.75113 11.6138C6.75225 11.5453 6.75434 11.5001 6.75706 11.4688C6.76345 11.3954 6.76944 11.4613 6.71045 11.5534L5.44763 10.7438ZM5.25 11.8613V12.1387H6.75V11.8613H5.25ZM5.25 12.1387C5.25 12.3214 5.24933 12.5073 5.26269 12.6611C5.27607 12.8149 5.30957 13.0408 5.44757 13.2561L6.71047 12.4467C6.76945 12.5387 6.76344 12.6047 6.75706 12.5312C6.75434 12.4999 6.75225 12.4547 6.75113 12.3862C6.75002 12.318 6.75 12.2387 6.75 12.1387H5.25ZM5.44757 13.2561C5.6058 13.503 5.86584 13.6436 5.99756 13.714C6.16753 13.8049 6.39546 13.9094 6.65688 14.0296L7.28359 12.6668C7.00354 12.538 6.82537 12.4557 6.70486 12.3913C6.64615 12.3599 6.6227 12.3439 6.61842 12.3408C6.61038 12.3349 6.6601 12.3681 6.71047 12.4467L5.44757 13.2561ZM6.65688 14.0296C7.20153 14.2801 7.52869 14.8197 7.51149 15.3462L9.01069 15.3952C9.04873 14.2309 8.34463 13.1547 7.28358 12.6668L6.65688 14.0296ZM7.51149 15.3462C7.50124 15.6602 7.49229 15.9262 7.49626 16.1276C7.49826 16.2293 7.50377 16.3375 7.51906 16.4408C7.53303 16.5351 7.563 16.6851 7.64806 16.8342L8.95094 16.0908C9.00097 16.1785 9.00599 16.2421 9.00289 16.2211C9.00111 16.2091 8.99744 16.1732 8.99597 16.098C8.99296 15.9457 8.99984 15.7272 9.01069 15.3952L7.51149 15.3462ZM7.64806 16.8342C7.77144 17.0504 7.95052 17.1834 8.07471 17.2655C8.20031 17.3484 8.3601 17.4352 8.51818 17.5219L9.2389 16.2063C9.15254 16.159 9.08389 16.1214 9.02527 16.0881C8.96639 16.0546 8.92778 16.0312 8.90139 16.0138C8.8384 15.9722 8.89763 15.9974 8.95094 16.0908L7.64806 16.8342ZM8.51811 17.5218L8.84074 17.6986L9.5616 16.3832L9.23897 16.2064L8.51811 17.5218ZM8.84088 17.6987C8.99371 17.7824 9.14953 17.8685 9.28503 17.9285C9.42098 17.9887 9.62561 18.0653 9.87037 18.0538L9.79999 16.5554C9.90423 16.5505 9.95635 16.5853 9.89268 16.5571C9.86547 16.545 9.82686 16.5261 9.76909 16.4956C9.71154 16.4653 9.64524 16.429 9.56146 16.3831L8.84088 17.6987ZM9.8709 18.0537C10.1528 18.0403 10.3981 17.8951 10.5218 17.8212C10.6819 17.7256 10.8824 17.5892 11.1132 17.4327L10.2712 16.1913C10.0243 16.3588 9.86656 16.4654 9.75267 16.5334C9.69716 16.5665 9.6719 16.5784 9.66669 16.5806C9.65694 16.5848 9.70896 16.5598 9.79946 16.5555L9.8709 18.0537ZM11.1131 17.4328C11.6367 17.0778 12.3643 17.0778 12.8878 17.4327L13.7296 16.1913C12.6979 15.4916 11.3031 15.4916 10.2713 16.1912L11.1131 17.4328ZM12.8878 17.4328C13.1185 17.5892 13.3191 17.7256 13.4792 17.8212C13.6027 17.8949 13.8484 18.0404 14.1306 18.0537L14.201 16.5553C14.2917 16.5596 14.3439 16.5847 14.3342 16.5805C14.329 16.5783 14.3038 16.5665 14.2482 16.5333C14.1343 16.4653 13.9766 16.3587 13.7296 16.1912L12.8878 17.4328ZM14.1301 18.0536C14.3751 18.0653 14.5799 17.9888 14.7159 17.9285C14.8515 17.8684 15.0074 17.7823 15.1602 17.6985L14.4394 16.3831C14.3556 16.429 14.2893 16.4653 14.2318 16.4956C14.174 16.5261 14.1355 16.545 14.1083 16.5571C14.0447 16.5852 14.097 16.5504 14.2015 16.5554L14.1301 18.0536ZM15.1601 17.6986L15.4827 17.5219L14.7621 16.2063L14.4395 16.383L15.1601 17.6986ZM15.4828 17.5218C15.6409 17.4352 15.8008 17.3483 15.9264 17.2653C16.0506 17.1832 16.2299 17.0501 16.3532 16.8335L15.0498 16.0911C15.1031 15.9974 15.1625 15.9722 15.0996 16.0138C15.0732 16.0312 15.0346 16.0546 14.9757 16.0881C14.917 16.1214 14.8483 16.159 14.762 16.2064L15.4828 17.5218ZM16.3528 16.8341C16.438 16.685 16.468 16.535 16.482 16.4406C16.4972 16.3372 16.5027 16.229 16.5047 16.1273C16.5087 15.9259 16.4996 15.6599 16.4893 15.346L14.9901 15.3954C15.0011 15.7274 15.008 15.9458 15.005 16.098C15.0036 16.1731 14.9999 16.209 14.9981 16.2209C14.995 16.2418 15.0001 16.1782 15.0502 16.0905L16.3528 16.8341ZM16.4893 15.3461C16.472 14.8194 16.799 14.2799 17.3432 14.0296L16.7164 12.6668C15.6554 13.1549 14.9518 14.2312 14.9901 15.3954L16.4893 15.3461ZM13 12C13 12.5523 12.5523 13 12 13V14.5C13.3807 14.5 14.5 13.3807 14.5 12H13ZM12 13C11.4477 13 11 12.5523 11 12H9.5C9.5 13.3807 10.6193 14.5 12 14.5V13ZM11 12C11 11.4477 11.4477 11 12 11V9.5C10.6193 9.5 9.5 10.6193 9.5 12H11ZM12 11C12.5523 11 13 11.4477 13 12H14.5C14.5 10.6193 13.3807 9.5 12 9.5V11ZM18.25 2V4.85857H19.75V2H18.25ZM19.525 4.32299C17.5867 2.42288 14.9297 1.25 12 1.25V2.75C14.5213 2.75 16.8057 3.75776 18.475 5.39415L19.525 4.32299ZM12 1.25C6.06294 1.25 1.25 6.06294 1.25 12H2.75C2.75 6.89136 6.89136 2.75 12 2.75V1.25ZM1.25 12C1.25 13.5275 1.56903 14.9825 2.14483 16.3003L3.51935 15.6997C3.02475 14.5677 2.75 13.3169 2.75 12H1.25ZM5.75 22V19.1414H4.25V22H5.75ZM4.47496 19.677C6.41323 21.5771 9.0704 22.75 12 22.75V21.25C9.4787 21.25 7.19427 20.2423 5.52504 18.6058L4.47496 19.677ZM12 22.75C17.937 22.75 22.75 17.937 22.75 12H21.25C21.25 17.1086 17.1086 21.25 12 21.25V22.75ZM22.75 12C22.75 10.4725 22.431 9.01755 21.8552 7.69972L20.4806 8.30028C20.9752 9.43229 21.25 10.6831 21.25 12H22.75Z" fill="black"/>
</svg>
