<svg width="24" height="24" viewBox="0 0 24 24" fill="none" xmlns="http://www.w3.org/2000/svg">
<path d="M18.752 15C18.752 14.5858 18.4162 14.25 18.002 14.25C17.5877 14.25 17.252 14.5858 17.252 15H18.752ZM17.252 22C17.252 22.4142 17.5877 22.75 18.002 22.75C18.4162 22.75 18.752 22.4142 18.752 22H17.252ZM21.502 19.25C21.9162 19.25 22.252 18.9142 22.252 18.5C22.252 18.0858 21.9162 17.75 21.502 17.75V19.25ZM14.502 17.75C14.0877 17.75 13.752 18.0858 13.752 18.5C13.752 18.9142 14.0877 19.25 14.502 19.25V17.75ZM7.00196 15.25C6.58774 15.25 6.25196 15.5858 6.25196 16C6.25196 16.4142 6.58774 16.75 7.00196 16.75V15.25ZM11.002 16.75C11.4162 16.75 11.752 16.4142 11.752 16C11.752 15.5858 11.4162 15.25 11.002 15.25V16.75ZM7.00196 10.25C6.58774 10.25 6.25196 10.5858 6.25196 11C6.25196 11.4142 6.58774 11.75 7.00196 11.75V10.25ZM15.002 11.75C15.4162 11.75 15.752 11.4142 15.752 11C15.752 10.5858 15.4162 10.25 15.002 10.25V11.75ZM6.52445 4.24966C6.93847 4.23724 7.26404 3.89154 7.25162 3.47751C7.2392 3.06348 6.8935 2.73792 6.47947 2.75034L6.52445 4.24966ZM3.37673 4.36227L2.84615 3.83218L2.84615 3.83219L3.37673 4.36227ZM11.502 22.75C11.9162 22.75 12.252 22.4142 12.252 22C12.252 21.5858 11.9162 21.25 11.502 21.25V22.75ZM15.5166 2.75034C15.1026 2.73792 14.7569 3.06348 14.7445 3.47751C14.7321 3.89154 15.0576 4.23724 15.4717 4.24966L15.5166 2.75034ZM18.6194 4.36228L18.0888 4.89235L18.0888 4.89237L18.6194 4.36228ZM18.7481 12C18.7481 12.4142 19.0838 12.75 19.4981 12.75C19.9123 12.75 20.2481 12.4142 20.2481 12H18.7481ZM17.252 15V22H18.752V15H17.252ZM21.502 17.75H14.502V19.25H21.502V17.75ZM7.00196 16.75H11.002V15.25H7.00196V16.75ZM7.00196 11.75H15.002V10.25H7.00196V11.75ZM6.47947 2.75034C4.93514 2.79666 3.71886 2.95867 2.84615 3.83218L3.9073 4.89236C4.31827 4.48101 4.95717 4.29668 6.52445 4.24966L6.47947 2.75034ZM2.84615 3.83219C2.24436 4.43454 1.98555 5.19289 1.86456 6.09364C1.74646 6.97287 1.74805 8.09401 1.74805 9.48836H3.24805C3.24805 8.05165 3.24964 7.04949 3.35121 6.29332C3.44989 5.55866 3.63042 5.1695 3.9073 4.89235L2.84615 3.83219ZM1.74805 9.48836V15.9944H3.24805V9.48836H1.74805ZM1.74805 15.9944C1.74805 17.3888 1.74646 18.5099 1.86456 19.3891C1.98555 20.2899 2.24436 21.0482 2.84615 21.6506L3.9073 20.5904C3.63042 20.3133 3.44989 19.9241 3.35121 19.1895C3.24964 18.4333 3.24805 17.4311 3.24805 15.9944H1.74805ZM2.84615 21.6506C3.44804 22.253 4.20597 22.5122 5.10621 22.6334C5.9848 22.7516 7.10506 22.75 8.49805 22.75V21.25C7.06262 21.25 6.06156 21.2484 5.30626 21.1468C4.57261 21.048 4.18409 20.8675 3.9073 20.5904L2.84615 21.6506ZM8.49805 22.75H11.502V21.25H8.49805V22.75ZM15.4717 4.24966C17.039 4.29668 17.6778 4.48101 18.0888 4.89235L19.15 3.83221C18.2773 2.95867 17.061 2.79666 15.5166 2.75034L15.4717 4.24966ZM18.0888 4.89237C18.3657 5.16951 18.5462 5.55867 18.6449 6.29333C18.7465 7.04949 18.7481 8.05165 18.7481 9.48836H20.2481C20.2481 8.09401 20.2496 6.97287 20.1315 6.09363C20.0106 5.19289 19.7517 4.43454 19.1499 3.83219L18.0888 4.89237ZM18.7481 9.48836V12H20.2481V9.48836H18.7481ZM7.24805 3.75C7.24805 3.19772 7.69577 2.75 8.24805 2.75V1.25C6.86735 1.25 5.74805 2.36928 5.74805 3.75H7.24805ZM8.24805 2.75H13.7481V1.25H8.24805V2.75ZM13.7481 2.75C14.3003 2.75 14.7481 3.19771 14.7481 3.75H16.2481C16.2481 2.36929 15.1288 1.25 13.7481 1.25V2.75ZM14.7481 3.75C14.7481 4.30229 14.3003 4.75 13.7481 4.75V6.25C15.1288 6.25 16.2481 5.13071 16.2481 3.75H14.7481ZM13.7481 4.75H8.24805V6.25H13.7481V4.75ZM8.24805 4.75C7.69577 4.75 7.24805 4.30228 7.24805 3.75H5.74805C5.74805 5.13072 6.86735 6.25 8.24805 6.25V4.75Z" fill="black"/>
</svg>
