<svg width="24" height="24" viewBox="0 0 24 24" fill="none" xmlns="http://www.w3.org/2000/svg">
<path d="M14.74 9.00028L14.394 18.0003M9.606 18.0003L9.26 9.00028M19.228 5.79028C19.57 5.84228 19.91 5.89728 20.25 5.95628M19.228 5.79028L18.16 19.6733C18.1164 20.2385 17.8611 20.7664 17.445 21.1515C17.029 21.5366 16.4829 21.7504 15.916 21.7503H8.084C7.5171 21.7504 6.97102 21.5366 6.55498 21.1515C6.13894 20.7664 5.88359 20.2385 5.84 19.6733L4.772 5.79028M19.228 5.79028C18.0739 5.61579 16.9138 5.48337 15.75 5.39328M4.772 5.79028C4.43 5.84128 4.09 5.89628 3.75 5.95528M4.772 5.79028C5.92613 5.6158 7.08623 5.48337 8.25 5.39328M15.75 5.39328V4.47728C15.75 3.29728 14.84 2.31328 13.66 2.27628C12.5536 2.24092 11.4464 2.24092 10.34 2.27628C9.16 2.31328 8.25 3.29828 8.25 4.47728V5.39328M15.75 5.39328C13.2537 5.20035 10.7463 5.20035 8.25 5.39328" stroke="black" stroke-width="1.5" stroke-linecap="round" stroke-linejoin="round"/>
</svg>
