<svg width="24" height="24" viewBox="0 0 24 24" fill="none" xmlns="http://www.w3.org/2000/svg">
<path d="M18.6161 19.75H19.1063C20.2561 19.75 21.1707 19.2261 21.9919 18.4936C24.078 16.6326 19.1741 14.75 17.5 14.75M15.5 4.81877C15.7271 4.77373 15.9629 4.75 16.2048 4.75C18.0247 4.75 19.5 6.09315 19.5 7.75C19.5 9.40685 18.0247 10.75 16.2048 10.75C15.9629 10.75 15.7271 10.7263 15.5 10.6812M4.48131 15.8612C3.30234 16.493 0.211139 17.7831 2.09388 19.3974C3.01359 20.186 4.03791 20.75 5.32572 20.75H12.6743C13.9621 20.75 14.9864 20.186 15.9061 19.3974C17.7889 17.7831 14.6977 16.493 13.5187 15.8612C10.754 14.3796 7.24599 14.3796 4.48131 15.8612ZM13 7.25C13 9.45914 11.2091 11.25 9 11.25C6.79086 11.25 5 9.45914 5 7.25C5 5.04086 6.79086 3.25 9 3.25C11.2091 3.25 13 5.04086 13 7.25Z" stroke="black" stroke-width="1.5" stroke-linecap="round"/>
</svg>
