<svg width="24" height="24" viewBox="0 0 24 24" fill="none" xmlns="http://www.w3.org/2000/svg">
<path d="M6 17V20M18 17V20M20 9C20 7.13077 20 6.19615 19.5981 5.5C19.3348 5.04394 18.9561 4.66523 18.5 4.40192C17.8038 4 16.8692 4 15 4H9C7.13077 4 6.19615 4 5.5 4.40192C5.04394 4.66523 4.66523 5.04394 4.40192 5.5C4 6.19615 4 7.13077 4 9M20 9C18.8954 9 18 9.89543 18 11V13C18 13.8273 17.8273 14 17 14H7C6.17267 14 6 13.8273 6 13V11C6 9.89543 5.10457 9 4 9M20 9C21.1046 9 22 9.89543 22 11C22 11.7403 21.5978 12.3866 21 12.7324V13C21 14.8856 21 15.8284 20.4142 16.4142C19.8284 17 18.8856 17 17 17H7C5.11438 17 4.17157 17 3.58579 16.4142C3 15.8284 3 14.8856 3 13V12.7324C2.4022 12.3866 2 11.7403 2 11C2 9.89543 2.89543 9 4 9" stroke="black" stroke-width="1.5" stroke-linecap="round" stroke-linejoin="round"/>
</svg>
