<svg width="24" height="24" viewBox="0 0 24 24" fill="none" xmlns="http://www.w3.org/2000/svg">
<path d="M11.4996 8.5C13.7235 8.5 15.4996 10.2761 15.4996 12.5M11.4996 8.5C9.27579 8.5 7.49965 10.2761 7.49965 12.5M11.4996 8.5C10.4388 8.5 9.42137 8.92143 8.67122 9.67157C7.92108 10.4217 7.49965 11.4391 7.49965 12.5M11.4996 8.5C12.5605 8.5 13.5779 8.92143 14.3281 9.67157C15.0782 10.4217 15.4996 11.4391 15.4996 12.5M15.4996 12.5C15.4996 14.7239 13.7235 16.5 11.4996 16.5M15.4996 12.5C15.4996 13.5609 15.0782 14.5783 14.3281 15.3284C13.5779 16.0786 12.5605 16.5 11.4996 16.5M7.49965 12.5C7.49965 14.7239 9.27579 16.5 11.4996 16.5M7.49965 12.5C7.49965 13.5609 7.92108 14.5783 8.67122 15.3284C9.42137 16.0786 10.4388 16.5 11.4996 16.5" fill="#141414" stroke="#9697A0"/>
</svg>
