<svg width="59" height="59" viewBox="0 0 59 59" fill="none" xmlns="http://www.w3.org/2000/svg">
<path d="M39.5 26.5L44.2876 14.6157C46.1409 10.0153 42.7543 7 37.7947 7L22.0092 8.44857C18.4825 8.77219 15.6347 11.466 15.1157 14.9693V14.9693C14.498 19.1387 17.3569 23.0266 21.521 23.6798L39.5 26.5ZM39.5 26.5L44.2876 38C45.6614 42.2033 42.9883 45.9319 38.7856 46.4409C38.1313 46.5202 37.4714 46.5815 36.8323 46.7425L23.8719 50.0084C18.5467 51.3503 13.7396 46.4766 15.1546 41.1703V41.1703C15.6916 39.1564 17.075 37.4739 18.9472 36.5578L39.5 26.5ZM9 58H50C54.4183 58 58 54.4183 58 50V9C58 4.58172 54.4183 1 50 1H9C4.58172 1 1 4.58172 1 9V50C1 54.4183 4.58172 58 9 58Z" stroke="white" stroke-width="2"/>
</svg>
